<svg xmlns="http://www.w3.org/2000/svg" viewBox="0 0 500 500" width="500" height="500">
  <defs>
    <radialGradient id="bg" cx="50%" cy="50%" r="50%">
      <stop offset="0%" stop-color="#0f1e36"/>
      <stop offset="100%" stop-color="#06101f"/>
    </radialGradient>
    <linearGradient id="flame" x1="0" y1="0" x2="0" y2="1">
      <stop offset="0%" stop-color="#ffb84d"/>
      <stop offset="55%" stop-color="#e63946"/>
      <stop offset="100%" stop-color="#7a1020"/>
    </linearGradient>
  </defs>
  <circle cx="250" cy="250" r="248" fill="url(#bg)"/>
  <rect x="60" y="120" width="380" height="260" rx="14" fill="none" stroke="#d4a574" stroke-width="2"/>
  <text x="135" y="240" font-family="Cormorant Garamond, Georgia, serif" font-size="54" font-weight="600" fill="#d4a574" letter-spacing="2">CASPIAN</text>
  <text x="305" y="240" font-family="Cormorant Garamond, Georgia, serif" font-size="54" font-weight="600" fill="#d4a574" letter-spacing="2">FLAME</text>
  <g transform="translate(250 195)">
    <path d="M0 -45 C 8 -28 22 -22 22 0 a 22 22 0 1 1 -44 0 c 0 -12 6 -16 8 -22 0 6 4 8 6 4 0 -10 -4 -18 8 -27 z" fill="url(#flame)"/>
  </g>
  <line x1="80" y1="265" x2="420" y2="265" stroke="#d4a574" stroke-width="1"/>
  <text x="250" y="295" text-anchor="middle" font-family="Inter, sans-serif" font-size="14" fill="#e8c08a" letter-spacing="3">MEDITERRANEAN SOUL · ANATOLIAN HEART</text>
  <text x="250" y="318" text-anchor="middle" font-family="Inter, sans-serif" font-size="14" fill="#e8c08a" letter-spacing="3">CAUCASIAN TASTE</text>
  <text x="250" y="360" text-anchor="middle" font-family="Inter" font-size="22" fill="#d4a574" letter-spacing="6">★ ★ ★ ★ ★</text>
</svg>
